<svg width="128" height="128" viewBox="0 0 128 128" fill="none" xmlns="http://www.w3.org/2000/svg">
<rect width="128" height="128" fill="#5998D5"/>
<path d="M53.9707 109.116V107.35H54.845C55.249 107.35 55.5603 107.416 55.7789 107.537C55.9975 107.663 56.1034 107.886 56.1034 108.2C56.1034 108.507 55.9975 108.736 55.7789 108.887C55.5603 109.037 55.249 109.116 54.845 109.116H53.9707ZM56.1697 111.611H56.9181L55.6001 109.544C55.9511 109.459 56.2359 109.309 56.4479 109.086C56.6598 108.863 56.7658 108.567 56.7658 108.2C56.7658 107.953 56.7194 107.742 56.6333 107.573C56.5406 107.404 56.4147 107.272 56.2558 107.163C56.0902 107.055 55.8981 106.983 55.6729 106.934C55.4477 106.892 55.2027 106.868 54.9377 106.868H53.3083V111.611H53.9707V109.61H54.9112L56.1697 111.611ZM57.9249 106.868V111.611H61.0114V111.098H58.5872V109.375H60.5677V108.863H58.5872V107.374H60.9319V106.868H57.9249ZM62.1175 106.868V111.611H63.4489C63.8396 111.611 64.1907 111.556 64.4887 111.448C64.7934 111.339 65.0451 111.183 65.2571 110.978C65.4624 110.773 65.6147 110.52 65.7207 110.225C65.8267 109.929 65.8797 109.592 65.8797 109.218C65.8797 108.459 65.6743 107.88 65.2571 107.477C64.8332 107.067 64.2238 106.868 63.4157 106.868H62.1175ZM63.3694 111.117H62.7733V107.356H63.3694C63.9787 107.356 64.4357 107.519 64.7404 107.838C65.0451 108.152 65.1974 108.616 65.1974 109.218C65.1974 109.821 65.0451 110.285 64.7404 110.622C64.4357 110.954 63.9787 111.117 63.3694 111.117ZM66.9792 106.868V109.652C66.9792 110.032 67.0255 110.351 67.1249 110.61C67.2176 110.875 67.3501 111.086 67.5157 111.243C67.6812 111.406 67.8799 111.52 68.1118 111.593C68.3436 111.665 68.5887 111.695 68.8536 111.695C69.1185 111.695 69.3636 111.665 69.5954 111.593C69.8206 111.52 70.0193 111.406 70.1849 111.243C70.3505 111.086 70.483 110.875 70.5823 110.61C70.675 110.351 70.7214 110.032 70.7214 109.652V106.868H70.0856V109.664C70.0856 109.947 70.0524 110.188 69.9928 110.381C69.9266 110.574 69.8405 110.731 69.7279 110.845C69.6153 110.96 69.4894 111.044 69.3371 111.092C69.1914 111.147 69.0324 111.171 68.8536 111.171C68.688 111.171 68.529 111.147 68.3767 111.092C68.231 111.044 68.0985 110.96 67.9925 110.845C67.8866 110.731 67.8005 110.574 67.7342 110.381C67.668 110.188 67.6415 109.947 67.6415 109.664V106.868H66.9792ZM72.9734 109.158L71.4566 111.611H72.1521L72.9071 110.333C72.9734 110.213 73.0396 110.098 73.1058 109.972C73.1787 109.851 73.2449 109.718 73.3244 109.574H73.3509C73.437 109.718 73.5165 109.851 73.5894 109.972C73.6622 110.098 73.7285 110.213 73.8013 110.333L74.563 111.611H75.2916L73.7748 109.188L75.1989 106.868H74.4968L73.8079 108.079C73.7417 108.194 73.6821 108.302 73.6291 108.405C73.5695 108.507 73.5099 108.628 73.4304 108.766H73.4039C73.3244 108.628 73.2516 108.507 73.192 108.405C73.1323 108.302 73.0661 108.194 72.9932 108.079L72.2912 106.868H71.556L72.9734 109.158Z" fill="white"/>
<path d="M42.3484 95.2773C42.3484 96.7311 41.8671 97.8635 40.9045 98.6746C39.9463 99.4857 38.6083 99.8913 36.8907 99.8913C36.1709 99.8913 35.4909 99.8093 34.8507 99.6453C34.2148 99.4857 33.6651 99.253 33.2014 98.9472V95.5034C33.749 95.8491 34.376 96.1416 35.0825 96.3809C35.7934 96.6158 36.4359 96.7333 37.0099 96.7333C37.4912 96.7333 37.8555 96.6314 38.1028 96.4275C38.3545 96.2236 38.4803 95.9355 38.4803 95.5632C38.4803 95.3859 38.4406 95.2197 38.3611 95.0646C38.2816 94.9139 38.1712 94.761 38.0299 94.6058C37.8842 94.4507 37.4978 94.1116 36.8708 93.5886C36.1069 92.9725 35.5527 92.3432 35.2083 91.7005C34.8595 91.0578 34.6851 90.3531 34.6851 89.5863C34.6851 88.7264 34.8992 87.9552 35.3275 87.2727C35.7559 86.5857 36.3608 86.0538 37.1424 85.6771C37.9195 85.3003 38.7916 85.1119 39.7586 85.1119C41.3217 85.1119 42.7259 85.4621 43.9711 86.1624L42.6531 89.0877C41.5359 88.507 40.5843 88.2167 39.7984 88.2167C39.3833 88.2167 39.0632 88.3098 38.838 88.496C38.6128 88.6777 38.5002 88.9458 38.5002 89.3004C38.5002 89.6195 38.6083 89.9187 38.8247 90.1979C39.0455 90.4772 39.4628 90.8495 40.0765 91.3149C40.8449 91.8866 41.4145 92.4872 41.7854 93.1166C42.1607 93.746 42.3484 94.4662 42.3484 95.2773ZM48.8592 99.8913C47.4948 99.8913 46.4417 99.519 45.6998 98.7744C44.958 98.0342 44.5871 96.9771 44.5871 95.6031C44.5871 94.2246 44.8476 92.9814 45.3687 91.8733C45.8853 90.7608 46.6139 89.8966 47.5544 89.2805C48.4949 88.6644 49.5922 88.3563 50.8463 88.3563C52.2107 88.3563 53.2638 88.7264 54.0056 89.4666C54.7475 90.2068 55.1184 91.2661 55.1184 92.6446C55.1184 94.0185 54.8578 95.2618 54.3368 96.3743C53.8202 97.4868 53.0916 98.3511 52.1511 98.9672C51.2105 99.5832 50.1133 99.8913 48.8592 99.8913ZM50.4091 91.2152C49.8704 91.2152 49.4112 91.6739 49.0314 92.5914C48.6473 93.5044 48.4552 94.5504 48.4552 95.7294C48.4552 96.6026 48.7312 97.0391 49.2831 97.0391C49.8086 97.0391 50.2678 96.5826 50.6608 95.6696C51.0538 94.761 51.2503 93.7127 51.2503 92.5249C51.2503 92.0905 51.1752 91.7647 51.0251 91.5476C50.875 91.326 50.6696 91.2152 50.4091 91.2152ZM64.7621 88.3563C65.1286 88.3563 65.3913 88.3829 65.5503 88.4361L64.7224 92.1991C64.3735 92.0573 63.9739 91.9864 63.5235 91.9864C62.8479 91.9864 62.3092 92.2168 61.9074 92.6778C61.5056 93.1387 61.2009 93.8457 60.9934 94.7986L59.9535 99.6918H56.1649L58.5029 88.5558H61.5299L61.3576 90.4107H61.4371C61.861 89.6794 62.3203 89.1542 62.8148 88.835C63.3094 88.5159 63.9585 88.3563 64.7621 88.3563ZM70.2595 96.833C70.6923 96.833 71.2906 96.6779 72.0545 96.3676V99.2331C71.1625 99.6719 70.052 99.8913 68.7229 99.8913C67.7559 99.8913 67.0229 99.683 66.5239 99.2663C66.025 98.8497 65.7755 98.1649 65.7755 97.212C65.7755 96.7156 65.8528 96.0995 66.0073 95.3637L66.8286 91.4146H65.3251L65.7225 89.5464L67.8619 88.6821L69.1998 86.3219H71.73L71.2464 88.5558H74.068L73.452 91.4146H70.6238L69.7959 95.1776C69.6943 95.6829 69.6436 96.0286 69.6436 96.2147C69.6436 96.6269 69.8489 96.833 70.2595 96.833ZM79.082 99.8913C77.6999 99.8913 76.6225 99.5012 75.8497 98.7212C75.0814 97.9455 74.6973 96.8663 74.6973 95.4834C74.6973 94.1005 74.9688 92.8529 75.5119 91.7404C76.0595 90.6323 76.8079 89.7902 77.7573 89.214C78.7066 88.6422 79.8039 88.3563 81.0491 88.3563C82.2899 88.3563 83.268 88.6378 83.9833 89.2007C84.6942 89.7636 85.0497 90.5149 85.0497 91.4545C85.0497 92.7709 84.5375 93.7814 83.513 94.4862C82.493 95.1909 81.016 95.5432 79.082 95.5432H78.5057V95.7028C78.5057 96.669 79.04 97.1522 80.1086 97.1522C80.6252 97.1522 81.133 97.0768 81.632 96.9261C82.1265 96.771 82.6895 96.5272 83.321 96.1948V98.8874C82.5924 99.2597 81.9102 99.519 81.2743 99.6652C80.6429 99.8159 79.9121 99.8913 79.082 99.8913ZM80.6319 90.9293C80.2344 90.9293 79.8613 91.1575 79.5125 91.6141C79.1681 92.0706 78.9605 92.5869 78.8899 93.1631H79.1747C79.8856 93.1631 80.442 93.0279 80.8438 92.7576C81.25 92.4828 81.4532 92.1238 81.4532 91.6805C81.4532 91.4722 81.3869 91.2949 81.2545 91.1487C81.1264 91.0024 80.9189 90.9293 80.6319 90.9293ZM94.3159 88.3563C94.678 88.3563 94.9385 88.3829 95.0974 88.4361L94.2761 92.1991C93.9229 92.0573 93.5211 91.9864 93.0707 91.9864C92.3951 91.9864 91.8586 92.2168 91.4612 92.6778C91.0593 93.1387 90.7525 93.8457 90.5405 94.7986L89.5073 99.6918H85.712L88.0567 88.5558H91.0836L90.9048 90.4107H90.9843C91.4082 89.6794 91.8674 89.1542 92.362 88.835C92.8609 88.5159 93.5122 88.3563 94.3159 88.3563Z" fill="white"/>
<path d="M36.4026 80.2997H35.4355L38.4691 65.9259H39.4295L36.4026 80.2997ZM47.3312 80.2997H46.3377L47.775 73.6713C47.9384 72.8558 48.0201 72.3261 48.0201 72.0823C48.0201 70.8901 47.5167 70.2939 46.5099 70.2939C45.8167 70.2939 45.1632 70.5155 44.5494 70.9588C43.9356 71.3975 43.4168 72.0136 42.9929 72.807C42.569 73.6004 42.2444 74.5422 42.0192 75.6326L41.039 80.2997H40.0786L42.3372 69.6158H43.1254L42.8008 71.6768H42.8604C43.3815 70.9366 43.9732 70.3803 44.6355 70.008C45.2978 69.6357 45.9911 69.4496 46.7153 69.4496C47.4085 69.4496 47.9406 69.669 48.3115 70.1078C48.6868 70.5466 48.8833 71.1848 48.901 72.0225H48.9606C49.464 71.1759 50.0557 70.5355 50.7357 70.1011C51.4113 69.6668 52.1354 69.4496 52.9082 69.4496C53.6721 69.4496 54.2682 69.649 54.6965 70.0479C55.1248 70.4513 55.339 71.0297 55.339 71.7832C55.339 71.9737 55.3301 72.1599 55.3125 72.3416C55.2948 72.5233 55.2308 72.9156 55.1204 73.5184L53.6301 80.2997H52.6498L54.1136 73.6115C54.277 72.8269 54.3587 72.2508 54.3587 71.8829C54.3587 71.3776 54.2174 70.9876 53.9348 70.7128C53.6522 70.4335 53.2636 70.2939 52.7691 70.2939C51.7446 70.2939 50.8394 70.7438 50.0535 71.6435C49.2675 72.5433 48.7177 73.7311 48.4042 75.2071L47.3312 80.2997ZM61.3994 80.4593C59.8981 80.4593 58.9863 79.7413 58.6639 78.3052H58.6242C58.5403 78.775 58.0546 81.0532 57.167 85.1397H56.2L59.4852 69.6158H60.2933L59.8495 72.3084H59.9091C60.5052 71.3067 61.1433 70.5732 61.8233 70.1078C62.5077 69.6424 63.254 69.4097 64.062 69.4097C64.9451 69.4097 65.6252 69.7111 66.102 70.3139C66.5789 70.9211 66.8174 71.8474 66.8174 73.0929C66.8174 74.3694 66.5811 75.586 66.1087 76.7428C65.6406 77.8952 64.9959 78.8016 64.1746 79.462C63.3533 80.1269 62.4282 80.4593 61.3994 80.4593ZM63.8434 70.2939C63.2782 70.2939 62.7108 70.4845 62.1412 70.8657C61.576 71.2513 61.0484 71.8009 60.5582 72.5145C60.0725 73.2281 59.7126 74.0059 59.4786 74.8481C59.2446 75.6902 59.1276 76.3727 59.1276 76.8958C59.1276 77.7157 59.3285 78.3739 59.7303 78.8703C60.1321 79.3623 60.6819 79.6083 61.3795 79.6083C62.1876 79.6083 62.9228 79.3335 63.5851 78.7839C64.2431 78.2343 64.7774 77.4365 65.188 76.3905C65.5987 75.3445 65.804 74.2785 65.804 73.1926C65.804 71.2602 65.1505 70.2939 63.8434 70.2939ZM74.1296 69.4097C75.3042 69.4097 76.2138 69.7643 76.8585 70.4734C77.5032 71.1826 77.8255 72.1643 77.8255 73.4187C77.8255 74.7084 77.5915 75.9162 77.1234 77.042C76.6554 78.1634 76.0173 79.0188 75.2093 79.6083C74.3968 80.2022 73.4629 80.4992 72.4075 80.4992C71.2065 80.4992 70.2947 80.1402 69.6721 79.4221C69.0451 78.7041 68.7315 77.6758 68.7315 76.3373C68.7315 75.0874 68.97 73.9151 69.4469 72.8203C69.9238 71.7255 70.5684 70.8834 71.3809 70.2939C72.189 69.7044 73.1052 69.4097 74.1296 69.4097ZM74.0502 70.254C73.2421 70.254 72.5157 70.5111 71.871 71.0252C71.222 71.5394 70.7053 72.2774 70.3212 73.2391C69.937 74.1965 69.7449 75.2137 69.7449 76.2907C69.7449 78.529 70.6656 79.6482 72.5069 79.6482C73.3326 79.6482 74.0678 79.3955 74.7125 78.8903C75.3572 78.3806 75.8694 77.6337 76.2491 76.6498C76.6333 75.6614 76.8254 74.5777 76.8254 73.3987C76.8254 72.3882 76.5869 71.6125 76.11 71.0718C75.6332 70.5266 74.9465 70.254 74.0502 70.254ZM85.767 69.4296C86.2174 69.4296 86.6192 69.474 86.9725 69.5626L86.7671 70.4801C86.4581 70.3826 86.0893 70.3338 85.661 70.3338C85.0473 70.3338 84.4622 70.5421 83.9058 70.9588C83.3495 71.3798 82.8505 72.0092 82.4089 72.8469C81.9629 73.6846 81.6362 74.5932 81.4287 75.5727L80.4484 80.2997H79.488L81.7532 69.6158H82.5348L82.25 71.6169H82.3096C82.7865 71.0009 83.1883 70.5576 83.515 70.2873C83.8418 70.0169 84.1884 69.8064 84.5549 69.6557C84.9258 69.505 85.3299 69.4296 85.767 69.4296ZM90.1451 69.6158H92.9468L92.768 70.4069H89.9994L88.6747 76.6498C88.529 77.3013 88.4561 77.8398 88.4561 78.2653C88.4561 79.1739 88.869 79.6282 89.6947 79.6282C90.1363 79.6282 90.6308 79.544 91.1783 79.3756V80.2199C90.5204 80.4061 89.9663 80.4992 89.5159 80.4992C88.8712 80.4992 88.3722 80.3197 88.019 79.9606C87.6657 79.6016 87.4891 79.0831 87.4891 78.4049C87.4891 77.9262 87.584 77.2503 87.7739 76.3772L89.039 70.4069H87.2573L87.3897 69.7488L89.1913 69.5825L90.1451 67.0961H90.6816L90.1451 69.6158Z" fill="white"/>
<path fill-rule="evenodd" clip-rule="evenodd" d="M54.1459 36.5124C54.1459 37.8405 56.5614 38.8692 57.6875 38.304C57.9074 38.1862 58.0891 38.0077 58.2112 37.7897C58.2201 37.7716 58.2237 37.7513 58.2217 37.7313C58.2197 37.7112 58.2121 37.6921 58.1997 37.6762C58.1874 37.6602 58.1708 37.6481 58.1519 37.6412C58.133 37.6343 58.1126 37.6329 58.0929 37.6371C57.3666 37.8518 55.897 37.1736 55.897 36.5067C55.897 35.8398 57.3666 35.1729 58.0873 35.3764C58.1077 35.3814 58.1292 35.3804 58.149 35.3733C58.1688 35.3662 58.1861 35.3535 58.1987 35.3366C58.2113 35.3197 58.2187 35.2994 58.2199 35.2784C58.2211 35.2573 58.2161 35.2363 58.2055 35.2181C58.0817 34.9994 57.898 34.821 57.6763 34.7038C56.5502 34.1386 54.1403 35.1672 54.1403 36.4954L54.1459 36.5124ZM57.0907 43.6562C58.0254 44.5944 60.469 43.6053 60.8575 42.4128C60.9273 42.1729 60.9273 41.918 60.8575 41.6781C60.8487 41.6602 60.835 41.6452 60.8181 41.6347C60.8012 41.6242 60.7817 41.6187 60.7618 41.6187C60.7419 41.6187 60.7225 41.6242 60.7056 41.6347C60.6886 41.6452 60.675 41.6602 60.6661 41.6781C60.3058 42.345 58.7855 42.9045 58.3238 42.4467C57.8621 41.9889 58.4195 40.463 59.0839 40.1012C59.1033 40.093 59.1198 40.0793 59.1314 40.0617C59.143 40.0441 59.1492 40.0234 59.1492 40.0023C59.1492 39.9812 59.143 39.9606 59.1314 39.943C59.1198 39.9254 59.1033 39.9117 59.0839 39.9034C58.8431 39.8326 58.5871 39.8326 58.3463 39.9034C57.1526 40.2991 56.1729 42.7293 57.1076 43.6788L57.0907 43.6562ZM57.0907 29.3685C56.156 30.3067 57.1414 32.7596 58.3294 33.1496C58.5702 33.2207 58.8263 33.2207 59.067 33.1496C59.0848 33.1406 59.0998 33.1269 59.1102 33.11C59.1207 33.093 59.1262 33.0734 59.1262 33.0535C59.1262 33.0335 59.1207 33.014 59.1102 32.997C59.0998 32.98 59.0848 32.9663 59.067 32.9574C58.4195 32.5957 57.8564 31.0754 58.335 30.6119C58.8136 30.1485 60.3114 30.6967 60.6717 31.3749C60.6799 31.3943 60.6936 31.4109 60.7112 31.4226C60.7287 31.4342 60.7492 31.4405 60.7703 31.4405C60.7913 31.4405 60.8119 31.4342 60.8294 31.4226C60.8469 31.4109 60.8606 31.3943 60.8688 31.3749C60.9394 31.1332 60.9394 30.8762 60.8688 30.6345C60.4747 29.4363 58.0535 28.4529 57.1076 29.3911L57.0907 29.3685ZM71.3248 29.3685C70.3901 28.4303 67.9465 29.4194 67.5579 30.6119C67.4871 30.8536 67.4871 31.1106 67.5579 31.3523C67.5668 31.3701 67.5805 31.3852 67.5974 31.3957C67.6143 31.4062 67.6338 31.4117 67.6537 31.4117C67.6735 31.4117 67.693 31.4062 67.7099 31.3957C67.7269 31.3852 67.7405 31.3701 67.7494 31.3523C68.1097 30.6854 69.63 30.1259 70.0917 30.5836C70.5534 31.0414 69.996 32.5674 69.3316 32.9291C69.3122 32.9374 69.2957 32.9511 69.2841 32.9687C69.2725 32.9863 69.2663 33.0069 69.2663 33.028C69.2663 33.0491 69.2725 33.0698 69.2841 33.0874C69.2957 33.105 69.3122 33.1187 69.3316 33.1269C69.5724 33.1978 69.8284 33.1978 70.0692 33.1269C71.2629 32.7313 72.2426 30.3011 71.3079 29.3516L71.3248 29.3685ZM71.3248 43.6562C72.2595 42.718 71.2741 40.2651 70.0861 39.8752C69.8471 39.8052 69.5931 39.8052 69.3541 39.8752C69.3363 39.8841 69.3214 39.8978 69.3109 39.9148C69.3004 39.9317 69.2949 39.9513 69.2949 39.9713C69.2949 39.9912 69.3004 40.0108 69.3109 40.0277C69.3214 40.0447 69.3363 40.0584 69.3541 40.0673C70.0185 40.429 70.5759 41.955 70.1199 42.4185C69.6638 42.8819 68.1435 42.3224 67.7832 41.6555C67.775 41.636 67.7613 41.6195 67.7437 41.6078C67.7262 41.5961 67.7057 41.5899 67.6846 41.5899C67.6636 41.5899 67.6431 41.5961 67.6255 41.6078C67.608 41.6195 67.5943 41.636 67.5861 41.6555C67.5156 41.8972 67.5156 42.1542 67.5861 42.3959C67.9802 43.594 70.4014 44.5775 71.3473 43.6393L71.3248 43.6562ZM64.2134 26.407C62.8902 26.407 61.8654 28.8316 62.4285 29.962C62.5458 30.1826 62.7236 30.365 62.9409 30.4876C62.9589 30.4965 62.9791 30.5002 62.9991 30.4981C63.0191 30.4961 63.0381 30.4885 63.0539 30.4761C63.0698 30.4637 63.0819 30.447 63.0888 30.4281C63.0957 30.4091 63.0971 30.3886 63.0929 30.3689C62.8789 29.6398 63.5546 28.1647 64.219 28.1647C64.8834 28.1647 65.5478 29.6398 65.3451 30.3632C65.3401 30.3837 65.3411 30.4052 65.3482 30.4251C65.3552 30.445 65.3679 30.4624 65.3848 30.475C65.4016 30.4877 65.4217 30.4951 65.4427 30.4963C65.4637 30.4975 65.4846 30.4925 65.5028 30.4819C65.7206 30.3576 65.8984 30.1732 66.0152 29.9506C66.5782 28.8203 65.5535 26.4013 64.2303 26.4013L64.2134 26.407ZM74.2752 36.5124C74.2752 35.1842 71.8597 34.1556 70.7336 34.7207C70.5137 34.8385 70.3321 35.017 70.21 35.2351C70.201 35.2532 70.1974 35.2734 70.1994 35.2935C70.2015 35.3135 70.2091 35.3326 70.2214 35.3486C70.2338 35.3645 70.2503 35.3766 70.2692 35.3835C70.2881 35.3904 70.3085 35.3919 70.3282 35.3877C71.0545 35.1729 72.5241 35.8511 72.5241 36.518C72.5241 37.1849 71.0545 37.8518 70.3338 37.6484C70.3134 37.6433 70.292 37.6443 70.2722 37.6514C70.2524 37.6585 70.2351 37.6713 70.2225 37.6882C70.2098 37.705 70.2025 37.7253 70.2012 37.7464C70.2 37.7674 70.205 37.7884 70.2156 37.8066C70.3395 38.0253 70.5231 38.2038 70.7449 38.3209C71.871 38.8861 74.2809 37.8575 74.2809 36.5293L74.2752 36.5124ZM64.2134 46.6121C65.5366 46.6121 66.5613 44.1875 65.9983 43.0571C65.8809 42.8364 65.7031 42.6541 65.4859 42.5315C65.4679 42.5226 65.4477 42.5189 65.4277 42.5209C65.4077 42.523 65.3887 42.5306 65.3728 42.543C65.3569 42.5554 65.3449 42.572 65.338 42.591C65.3311 42.6099 65.3297 42.6305 65.3339 42.6502C65.5478 43.3793 64.8722 44.8544 64.2077 44.8544C63.5433 44.8544 62.8789 43.3793 63.0816 42.6558C63.0867 42.6354 63.0856 42.6138 63.0786 42.594C63.0715 42.5741 63.0588 42.5567 63.042 42.5441C63.0252 42.5314 63.005 42.524 62.984 42.5228C62.963 42.5215 62.9421 42.5265 62.924 42.5372C62.7061 42.6615 62.5283 42.8459 62.4116 43.0684C61.8485 44.1988 62.8733 46.6177 64.1965 46.6177L64.2134 46.6121Z" fill="#273E58"/>
<path fill-rule="evenodd" clip-rule="evenodd" d="M53.5152 47.2508C52.5806 46.3126 53.5659 43.8597 54.754 43.4698C54.9859 43.4038 55.2315 43.4038 55.4634 43.4698C55.48 43.4741 55.4953 43.4823 55.508 43.4938C55.5207 43.5052 55.5306 43.5196 55.5366 43.5356C55.5427 43.5517 55.5448 43.569 55.5429 43.586C55.5409 43.6031 55.5349 43.6194 55.5254 43.6337C55.0862 44.1989 54.799 45.2162 55.1763 45.5948C55.5535 45.9735 56.5389 45.6853 57.1301 45.2444C57.1443 45.2348 57.1605 45.2288 57.1775 45.2269C57.1945 45.2249 57.2117 45.227 57.2277 45.2331C57.2437 45.2392 57.258 45.2491 57.2695 45.2618C57.2809 45.2746 57.2891 45.29 57.2934 45.3066C57.3594 45.5394 57.3594 45.786 57.2934 46.0187C56.8992 47.2169 54.4781 48.2003 53.5321 47.2621L53.5152 47.2508ZM49.5738 32.5562C49.9173 31.2789 52.5186 30.9058 53.4533 31.7423C53.6463 31.9147 53.7836 32.141 53.8474 32.3923C53.8521 32.409 53.8526 32.4266 53.8489 32.4436C53.8453 32.4605 53.8376 32.4764 53.8265 32.4897C53.8155 32.503 53.8013 32.5135 53.7854 32.5201C53.7694 32.5268 53.7521 32.5295 53.7348 32.5279C53.0028 32.4431 52.0062 32.6918 51.8655 33.2061C51.7247 33.7204 52.4679 34.4326 53.1436 34.7265C53.1594 34.7339 53.1731 34.7451 53.1836 34.759C53.1941 34.773 53.2011 34.7893 53.2038 34.8066C53.2066 34.8239 53.2051 34.8415 53.1995 34.8581C53.194 34.8747 53.1844 34.8896 53.1718 34.9017C52.9997 35.073 52.7831 35.1925 52.5468 35.2464C51.3193 35.5007 49.2472 33.8787 49.5907 32.5957L49.5738 32.5562ZM60.272 21.8178C61.5501 21.473 63.1661 23.5529 62.9127 24.785C62.8587 25.0221 62.7397 25.2394 62.5692 25.4123C62.5573 25.425 62.5424 25.4346 62.5259 25.4402C62.5093 25.4458 62.4917 25.4473 62.4745 25.4445C62.4573 25.4417 62.4411 25.4347 62.4271 25.4242C62.4132 25.4137 62.4021 25.3999 62.3947 25.384C62.1019 24.7058 61.3924 23.9598 60.8801 24.1011C60.3677 24.2424 60.1256 25.2314 60.2044 25.9718C60.2059 25.9891 60.2033 26.0065 60.1966 26.0226C60.19 26.0386 60.1796 26.0528 60.1663 26.0639C60.153 26.075 60.1373 26.0827 60.1204 26.0864C60.1035 26.09 60.0859 26.0895 60.0693 26.0849C59.8364 26.0216 59.6258 25.8944 59.4611 25.7175C58.6278 24.7793 58.9938 22.1682 60.272 21.8234V21.8178ZM68.1041 21.8178C69.3766 22.1625 69.7483 24.7736 68.9093 25.7118C68.7446 25.8888 68.534 26.016 68.3012 26.0792C68.2845 26.0838 68.267 26.0844 68.2501 26.0807C68.2332 26.0771 68.2174 26.0693 68.2041 26.0582C68.1908 26.0471 68.1804 26.0329 68.1738 26.0169C68.1672 26.0009 68.1645 25.9835 68.1661 25.9662C68.2505 25.2314 68.0028 24.2311 67.4904 24.0898C66.978 23.9485 66.3023 24.7284 66.0039 25.401C65.9965 25.4168 65.9854 25.4306 65.9715 25.4412C65.9575 25.4517 65.9413 25.4587 65.9241 25.4614C65.9069 25.4642 65.8892 25.4627 65.8727 25.4571C65.8562 25.4515 65.8413 25.442 65.8294 25.4293C65.6586 25.2565 65.5396 25.0392 65.4859 24.8019C65.2325 23.5755 66.8654 21.4956 68.1266 21.8404L68.1041 21.8178ZM78.8023 32.5562C79.1682 33.8617 77.0962 35.4894 75.8743 35.2182C75.6381 35.1639 75.4216 35.0445 75.2493 34.8734C75.2367 34.8614 75.2272 34.8464 75.2216 34.8299C75.216 34.8133 75.2145 34.7956 75.2173 34.7783C75.2201 34.7611 75.227 34.7447 75.2375 34.7308C75.248 34.7168 75.2617 34.7056 75.2775 34.6982C75.9532 34.4043 76.6964 33.6922 76.5556 33.1779C76.4149 32.6635 75.4295 32.4205 74.6919 32.4996C74.6747 32.5012 74.6574 32.4985 74.6414 32.4919C74.6254 32.4852 74.6113 32.4748 74.6002 32.4614C74.5891 32.4481 74.5815 32.4323 74.5778 32.4153C74.5742 32.3983 74.5747 32.3807 74.5793 32.364C74.6423 32.1303 74.769 31.9189 74.9453 31.7536C75.88 30.9171 78.4813 31.2845 78.8248 32.5675L78.8023 32.5562ZM78.8023 40.4178C78.4588 41.6951 75.8575 42.0681 74.9228 41.226C74.7465 41.0607 74.6198 40.8493 74.5568 40.6156C74.5522 40.5989 74.5517 40.5813 74.5553 40.5643C74.5589 40.5474 74.5666 40.5315 74.5777 40.5182C74.5888 40.5049 74.6029 40.4944 74.6189 40.4878C74.6348 40.4811 74.6522 40.4784 74.6694 40.48C75.4014 40.5648 76.398 40.3161 76.5388 39.8018C76.6795 39.2874 75.9532 38.6092 75.2775 38.3097C75.2617 38.3023 75.248 38.2911 75.2375 38.2771C75.227 38.2632 75.2201 38.2468 75.2173 38.2296C75.2145 38.2123 75.216 38.1946 75.2216 38.178C75.2272 38.1615 75.2367 38.1465 75.2493 38.1345C75.4214 37.9631 75.638 37.8437 75.8743 37.7897C77.1018 37.5354 79.1739 39.1575 78.8304 40.4404L78.8023 40.4178ZM68.1041 51.1562C66.8654 51.5236 65.2325 49.4437 65.4859 48.2173C65.5399 47.9801 65.6589 47.7628 65.8294 47.5899C65.8413 47.5772 65.8562 47.5677 65.8727 47.562C65.8892 47.5564 65.9069 47.555 65.9241 47.5577C65.9413 47.5605 65.9575 47.5675 65.9715 47.578C65.9854 47.5886 65.9965 47.6023 66.0039 47.6182C66.2967 48.2964 67.0062 49.0424 67.5185 48.9011C68.0309 48.7598 68.2787 47.7708 68.1942 47.0304C68.1927 47.0131 68.1953 46.9957 68.202 46.9797C68.2086 46.9636 68.219 46.9495 68.2323 46.9384C68.2456 46.9272 68.2613 46.9195 68.2782 46.9159C68.2951 46.9122 68.3127 46.9127 68.3293 46.9174C68.5622 46.9806 68.7728 47.1078 68.9374 47.2847C69.7708 48.2229 69.4048 50.8341 68.1266 51.1788L68.1041 51.1562ZM60.272 51.1562C58.9994 50.8114 58.6278 48.2003 59.4611 47.2621C59.6387 47.0849 59.8636 46.9632 60.1087 46.9117C60.1253 46.9071 60.1429 46.9066 60.1598 46.9102C60.1767 46.9139 60.1924 46.9216 60.2057 46.9327C60.219 46.9438 60.2294 46.958 60.236 46.974C60.2427 46.9901 60.2453 47.0075 60.2438 47.0247C60.1593 47.7595 60.4071 48.7598 60.9195 48.9011C61.4319 49.0424 62.1413 48.2964 62.4341 47.6182C62.4415 47.6023 62.4526 47.5886 62.4666 47.578C62.4805 47.5675 62.4967 47.5605 62.5139 47.5577C62.5311 47.555 62.5488 47.5564 62.5653 47.562C62.5818 47.5677 62.5967 47.5772 62.6087 47.5899C62.7691 47.766 62.8782 47.9831 62.924 48.2173C63.1773 49.4494 61.5614 51.5292 60.2832 51.1845L60.272 51.1562ZM49.5738 40.4178C49.2585 39.1744 51.3249 37.5354 52.558 37.7897C52.7943 37.8439 53.0108 37.9634 53.183 38.1345C53.1957 38.1465 53.2052 38.1615 53.2108 38.178C53.2164 38.1946 53.2179 38.2123 53.2151 38.2296C53.2123 38.2468 53.2054 38.2632 53.1949 38.2771C53.1844 38.2911 53.1707 38.3023 53.1549 38.3097C52.4792 38.6036 51.736 39.3157 51.8767 39.83C52.0175 40.3443 53.0028 40.593 53.7405 40.5082C53.7577 40.5067 53.775 40.5094 53.791 40.516C53.807 40.5227 53.8211 40.5331 53.8322 40.5464C53.8432 40.5598 53.8509 40.5756 53.8546 40.5926C53.8582 40.6095 53.8577 40.6271 53.8531 40.6439C53.7901 40.8776 53.6633 41.089 53.4871 41.2543C52.5524 42.0907 49.9511 41.7234 49.6076 40.4404L49.5738 40.4178ZM53.5152 25.7232C54.4499 24.785 56.8936 25.774 57.2821 26.9665C57.3478 27.1993 57.3478 27.4459 57.2821 27.6787C57.2778 27.6953 57.2696 27.7106 57.2582 27.7234C57.2468 27.7362 57.2325 27.7461 57.2165 27.7521C57.2005 27.7582 57.1833 27.7604 57.1663 27.7584C57.1493 27.7565 57.133 27.7504 57.1188 27.7408C56.5558 27.3 55.5422 27.0118 55.165 27.3904C54.7877 27.7691 55.0749 28.7582 55.5141 29.3516C55.5236 29.3658 55.5297 29.3822 55.5316 29.3992C55.5336 29.4163 55.5314 29.4336 55.5254 29.4496C55.5193 29.4657 55.5095 29.48 55.4967 29.4915C55.484 29.503 55.4687 29.5112 55.4522 29.5155C55.2203 29.5818 54.9746 29.5818 54.7427 29.5155C53.549 29.1199 52.5693 26.6896 53.504 25.7401L53.5152 25.7232ZM74.9115 25.7232C75.8462 26.6613 74.8608 29.1142 73.6728 29.5042C73.4409 29.5702 73.1952 29.5702 72.9633 29.5042C72.9468 29.4999 72.9315 29.4917 72.9187 29.4802C72.906 29.4687 72.8962 29.4544 72.8901 29.4383C72.8841 29.4223 72.8819 29.405 72.8839 29.3879C72.8858 29.3709 72.8918 29.3545 72.9014 29.3403C73.3406 28.7751 73.6277 27.7578 73.2505 27.3791C72.8732 27.0005 71.8879 27.2887 71.2967 27.7295C71.2825 27.7391 71.2662 27.7452 71.2492 27.7471C71.2322 27.7491 71.215 27.7469 71.199 27.7408C71.183 27.7348 71.1687 27.7249 71.1573 27.7121C71.1459 27.6993 71.1377 27.684 71.1334 27.6674C71.0673 27.4346 71.0673 27.188 71.1334 26.9552C71.5275 25.7571 73.9487 24.7736 74.8946 25.7118L74.9115 25.7232ZM74.9115 47.2C73.9768 48.1382 71.5332 47.1491 71.1446 45.9566C71.0789 45.7238 71.0789 45.4772 71.1446 45.2444C71.1489 45.2278 71.1571 45.2125 71.1685 45.1997C71.18 45.1869 71.1943 45.177 71.2103 45.171C71.2263 45.1649 71.2435 45.1627 71.2605 45.1647C71.2775 45.1666 71.2937 45.1727 71.3079 45.1823C71.871 45.6231 72.8845 45.9113 73.2617 45.5327C73.639 45.154 73.3518 44.1649 72.9126 43.5715C72.9031 43.5573 72.8971 43.5409 72.8951 43.5239C72.8932 43.5068 72.8953 43.4895 72.9014 43.4735C72.9074 43.4574 72.9173 43.4431 72.93 43.4316C72.9427 43.4201 72.958 43.4119 72.9746 43.4076C73.2065 43.3413 73.4522 43.3413 73.684 43.4076C74.8777 43.8032 75.8575 46.2335 74.9228 47.183L74.9115 47.2Z" fill="white"/>
<path fill-rule="evenodd" clip-rule="evenodd" d="M84.0837 36.5124C84.0837 35.1842 81.6682 34.1556 80.5421 34.7208C80.294 34.8636 80.0971 35.0811 79.979 35.3425C79.9727 35.3561 79.9692 35.3709 79.969 35.3859C79.9687 35.401 79.9716 35.4159 79.9774 35.4298C79.9832 35.4436 79.9919 35.4561 80.0029 35.4664C80.0138 35.4766 80.0268 35.4845 80.0409 35.4894C80.6322 35.6929 81.1671 36.0885 81.1671 36.5067C81.1671 36.925 80.604 37.3206 80.0409 37.5241C80.0268 37.529 80.0138 37.5368 80.0029 37.5471C79.9919 37.5574 79.9832 37.5698 79.9774 37.5837C79.9716 37.5975 79.9687 37.6125 79.969 37.6275C79.9692 37.6426 79.9727 37.6574 79.979 37.671C80.0974 37.9322 80.2943 38.1496 80.5421 38.2927C81.6682 38.8579 84.0781 37.8292 84.0781 36.5011L84.0837 36.5124ZM47.0063 46.4821C47.6651 47.6125 50.2777 47.3129 50.9477 46.2561C51.1012 46.0057 51.1703 45.7124 51.1448 45.4196C51.1434 45.4049 51.1391 45.3907 51.132 45.3778C51.1249 45.3648 51.1153 45.3535 51.1037 45.3445C51.092 45.3355 51.0787 45.329 51.0645 45.3254C51.0502 45.3218 51.0354 45.3211 51.0209 45.3235C50.4072 45.4478 49.7259 45.38 49.5175 45.0183C49.3092 44.6566 49.5964 44.0293 50.0074 43.5602C50.0183 43.5501 50.027 43.5379 50.033 43.5242C50.039 43.5106 50.042 43.4959 50.042 43.481C50.042 43.4662 50.039 43.4514 50.033 43.4378C50.027 43.4242 50.0183 43.412 50.0074 43.4019C49.7667 43.2222 49.474 43.1269 49.1741 43.1306C47.9241 43.2041 46.3588 45.3066 47.0063 46.4539V46.4821ZM47.0063 26.537C46.3475 27.6673 47.9241 29.7924 49.1797 29.8659C49.4637 29.8684 49.7414 29.7815 49.9736 29.6172C49.9845 29.6072 49.9932 29.5949 49.9992 29.5813C50.0052 29.5677 50.0083 29.553 50.0083 29.5381C50.0083 29.5232 50.0052 29.5085 49.9992 29.4949C49.9932 29.4812 49.9845 29.469 49.9736 29.459C49.5626 28.9842 49.2754 28.3625 49.4837 28.0008C49.6921 27.6391 50.3734 27.5713 50.9871 27.6956C51.0016 27.698 51.0164 27.6974 51.0307 27.6938C51.0449 27.6901 51.0582 27.6836 51.0699 27.6746C51.0815 27.6656 51.0911 27.6543 51.0982 27.6414C51.1053 27.6284 51.1096 27.6142 51.111 27.5995C51.1547 27.3042 51.1013 27.0026 50.959 26.7405C50.272 25.6892 47.6651 25.3671 47.0175 26.5144L47.0063 26.537ZM64.2134 16.5673C62.8902 16.5673 61.8654 18.9919 62.4285 20.1222C62.5707 20.3712 62.7874 20.5689 63.0478 20.6874C63.0614 20.6938 63.0762 20.6972 63.0911 20.6975C63.1061 20.6978 63.121 20.6949 63.1348 20.689C63.1486 20.6832 63.161 20.6744 63.1713 20.6635C63.1815 20.6525 63.1893 20.6394 63.1942 20.6252C63.3969 20.0318 63.7911 19.4949 64.2077 19.4949C64.6244 19.4949 65.0185 20.0601 65.2212 20.6252C65.2261 20.6394 65.234 20.6525 65.2442 20.6635C65.2544 20.6744 65.2668 20.6832 65.2807 20.689C65.2945 20.6949 65.3093 20.6978 65.3243 20.6975C65.3393 20.6972 65.3541 20.6938 65.3676 20.6874C65.6278 20.5686 65.8444 20.3709 65.987 20.1222C66.5501 18.9919 65.5253 16.5729 64.2021 16.5729L64.2134 16.5673ZM81.4204 26.537C80.7617 25.4066 78.1491 25.7062 77.479 26.7631C77.3255 27.0134 77.2564 27.3067 77.282 27.5995C77.2833 27.6142 77.2877 27.6284 77.2947 27.6414C77.3018 27.6543 77.3114 27.6656 77.3231 27.6746C77.3347 27.6836 77.348 27.6901 77.3623 27.6938C77.3765 27.6974 77.3913 27.698 77.4058 27.6956C78.0196 27.5713 78.7009 27.6391 78.9092 28.0008C79.1175 28.3625 78.8304 28.9899 78.4193 29.459C78.4084 29.469 78.3997 29.4812 78.3937 29.4949C78.3878 29.5085 78.3847 29.5232 78.3847 29.5381C78.3847 29.553 78.3878 29.5677 78.3937 29.5813C78.3997 29.5949 78.4084 29.6072 78.4193 29.6172C78.6581 29.7853 78.9442 29.8725 79.2358 29.8659C80.4858 29.7924 82.0511 27.69 81.4035 26.5426L81.4204 26.537ZM81.4204 46.4821C82.068 45.3348 80.497 43.2267 79.2527 43.1306C78.961 43.1232 78.6747 43.2104 78.4362 43.3793C78.4253 43.3894 78.4166 43.4016 78.4106 43.4152C78.4047 43.4288 78.4016 43.4435 78.4016 43.4584C78.4016 43.4733 78.4047 43.488 78.4106 43.5016C78.4166 43.5153 78.4253 43.5275 78.4362 43.5375C78.8473 44.0123 79.1344 44.634 78.9261 44.9957C78.7178 45.3574 78.0365 45.4252 77.4227 45.3009C77.4082 45.2985 77.3934 45.2991 77.3792 45.3028C77.3649 45.3064 77.3516 45.3129 77.34 45.3219C77.3283 45.3309 77.3187 45.3422 77.3116 45.3551C77.3045 45.3681 77.3002 45.3823 77.2988 45.397C77.2737 45.6898 77.3428 45.983 77.4959 46.2334C78.1828 47.2847 80.7898 47.6068 81.4373 46.4595L81.4204 46.4821ZM64.2134 56.4575C65.5365 56.4575 66.5613 54.0329 65.9983 52.9025C65.856 52.6536 65.6393 52.4559 65.3789 52.3374C65.3653 52.331 65.3506 52.3276 65.3356 52.3273C65.3206 52.327 65.3057 52.3299 65.2919 52.3358C65.2781 52.3416 65.2657 52.3503 65.2555 52.3613C65.2452 52.3723 65.2374 52.3853 65.2325 52.3995C65.0298 52.993 64.6357 53.5299 64.219 53.5299C63.8023 53.5299 63.4082 52.9647 63.2055 52.3995C63.2006 52.3853 63.1928 52.3723 63.1825 52.3613C63.1723 52.3503 63.1599 52.3416 63.1461 52.3358C63.1323 52.3299 63.1174 52.327 63.1024 52.3273C63.0874 52.3276 63.0727 52.331 63.0591 52.3374C62.7989 52.4562 62.5823 52.6538 62.4397 52.9025C61.8767 54.0329 62.9014 56.4519 64.2246 56.4519L64.2134 56.4575ZM74.1457 19.2405C73.0196 18.5793 70.9025 20.1618 70.8293 21.4221C70.8268 21.7072 70.9134 21.986 71.077 22.219C71.0871 22.23 71.0992 22.2387 71.1128 22.2447C71.1264 22.2507 71.1411 22.2538 71.1559 22.2538C71.1707 22.2538 71.1854 22.2507 71.1989 22.2447C71.2125 22.2387 71.2247 22.23 71.2347 22.219C71.7077 21.8065 72.327 21.5182 72.6874 21.7273C73.0478 21.9364 73.1153 22.6203 72.9914 23.2364C72.9891 23.2509 72.9897 23.2658 72.9933 23.2801C72.9969 23.2944 73.0034 23.3078 73.0124 23.3194C73.0213 23.3311 73.0326 23.3408 73.0455 23.3479C73.0584 23.355 73.0725 23.3593 73.0872 23.3607C73.3789 23.386 73.671 23.3166 73.9205 23.1629C74.9678 22.4734 75.2887 19.8566 74.1457 19.2066V19.2405ZM54.2754 19.2405C53.1493 19.9018 53.4477 22.5242 54.5006 23.1968C54.7484 23.3497 55.0384 23.419 55.3283 23.3946C55.3429 23.3932 55.3571 23.3889 55.37 23.3818C55.3828 23.3747 55.3941 23.365 55.4031 23.3533C55.4121 23.3417 55.4186 23.3283 55.4222 23.314C55.4258 23.2997 55.4264 23.2848 55.424 23.2703C55.3001 22.6542 55.3677 21.9704 55.7281 21.7612C56.0884 21.5521 56.7134 21.8404 57.1808 22.2529C57.1908 22.2639 57.203 22.2727 57.2165 22.2786C57.2301 22.2846 57.2448 22.2877 57.2596 22.2877C57.2744 22.2877 57.2891 22.2846 57.3026 22.2786C57.3162 22.2727 57.3284 22.2639 57.3384 22.2529C57.5059 22.0133 57.5927 21.7261 57.5862 21.4334C57.513 20.1787 55.4184 18.6075 54.2754 19.2575V19.2405ZM44.343 36.5124C44.343 37.8406 46.7585 38.8692 47.8847 38.304C48.1327 38.1612 48.3297 37.9437 48.4477 37.6823C48.4541 37.6687 48.4575 37.6539 48.4578 37.6388C48.458 37.6238 48.4552 37.6089 48.4493 37.595C48.4435 37.5811 48.4348 37.5687 48.4239 37.5584C48.4129 37.5481 48.3999 37.5403 48.3858 37.5354C47.7946 37.3319 47.2597 36.9363 47.2597 36.518C47.2597 36.0998 47.8227 35.7042 48.3858 35.5007C48.3999 35.4958 48.4129 35.4879 48.4239 35.4777C48.4348 35.4674 48.4435 35.4549 48.4493 35.4411C48.4552 35.4272 48.458 35.4123 48.4578 35.3973C48.4575 35.3822 48.4541 35.3674 48.4477 35.3538C48.3293 35.0926 48.1324 34.8752 47.8847 34.7321C46.7585 34.1669 44.3486 35.1955 44.3486 36.5237L44.343 36.5124ZM54.2754 53.7842C55.4015 54.4455 57.5186 52.863 57.5918 51.6026C57.5991 51.3098 57.5123 51.0225 57.344 50.7831C57.334 50.7722 57.3218 50.7634 57.3083 50.7574C57.2947 50.7514 57.28 50.7483 57.2652 50.7483C57.2504 50.7483 57.2357 50.7514 57.2222 50.7574C57.2086 50.7634 57.1964 50.7722 57.1864 50.7831C56.7134 51.1957 56.0941 51.484 55.7337 51.2748C55.3733 51.0657 55.3058 50.3819 55.4296 49.7658C55.432 49.7513 55.4314 49.7364 55.4278 49.7221C55.4242 49.7078 55.4177 49.6944 55.4087 49.6827C55.3998 49.6711 55.3885 49.6614 55.3756 49.6543C55.3627 49.6472 55.3485 49.6428 55.3339 49.6415C55.0422 49.6162 54.7501 49.6855 54.5006 49.8393C53.4533 50.5288 53.1324 53.1456 54.2754 53.7955V53.7842ZM74.1457 53.7842C75.2718 53.123 74.9734 50.5005 73.9205 49.828C73.6711 49.6739 73.3789 49.6045 73.0872 49.6302C73.0725 49.6315 73.0584 49.6359 73.0455 49.643C73.0326 49.6501 73.0213 49.6598 73.0124 49.6714C73.0034 49.6831 72.9969 49.6965 72.9933 49.7108C72.9897 49.7251 72.9891 49.74 72.9914 49.7545C73.1153 50.3706 73.0478 51.0544 72.6874 51.2635C72.327 51.4726 71.702 51.1844 71.2347 50.7718C71.2247 50.7609 71.2125 50.7521 71.1989 50.7461C71.1854 50.7401 71.1707 50.737 71.1559 50.737C71.1411 50.737 71.1264 50.7401 71.1128 50.7461C71.0992 50.7521 71.0871 50.7609 71.077 50.7718C70.8981 51.0134 70.8031 51.3073 70.8068 51.6083C70.88 52.863 72.9746 54.4342 74.1176 53.7842H74.1457Z" fill="#283E59"/>
</svg>
