<svg width="128" height="128" viewBox="0 0 128 128" fill="none" xmlns="http://www.w3.org/2000/svg">
<circle cx="64" cy="64" r="55.5" fill="#1E1E1E" stroke="white"/>
<circle cx="64" cy="64" r="55.5" fill="url(#paint0_radial_1_295)" fill-opacity="0.2" stroke="white"/>
<g filter="url(#filter0_d_1_295)">
<path fill-rule="evenodd" clip-rule="evenodd" d="M39.0986 64.0613C39.0986 67.3422 45.0681 69.8831 47.8511 68.487C48.3944 68.1961 48.8434 67.7552 49.1452 67.2166C49.1672 67.1719 49.1762 67.1219 49.1712 67.0723C49.1662 67.0227 49.1474 66.9755 49.1169 66.9362C49.0864 66.8968 49.0454 66.8669 48.9988 66.8498C48.9521 66.8327 48.9016 66.8292 48.853 66.8396C47.058 67.3701 43.4262 65.6948 43.4262 64.0474C43.4262 62.3999 47.058 60.7525 48.8391 61.2551C48.8895 61.2677 48.9425 61.2651 48.9914 61.2476C49.0404 61.2301 49.0831 61.1986 49.1143 61.1568C49.1455 61.1151 49.1637 61.0651 49.1667 61.0131C49.1698 60.9611 49.1574 60.9093 49.1313 60.8642C48.8252 60.3241 48.3713 59.8832 47.8233 59.5937C45.0403 58.1976 39.0847 60.7386 39.0847 64.0194L39.0986 64.0613ZM46.3761 81.7083C48.686 84.0258 54.7251 81.5826 55.6852 78.6368C55.8576 78.0442 55.8576 77.4145 55.6852 76.8219C55.6632 76.7778 55.6295 76.7407 55.5877 76.7147C55.5459 76.6888 55.4978 76.6751 55.4486 76.6751C55.3995 76.6751 55.3513 76.6888 55.3096 76.7147C55.2678 76.7407 55.234 76.7778 55.2121 76.8219C54.3215 78.4693 50.5645 79.8514 49.4235 78.7206C48.2825 77.5897 49.66 73.8202 51.302 72.9267C51.3499 72.9064 51.3907 72.8724 51.4194 72.8289C51.4481 72.7855 51.4634 72.7345 51.4634 72.6824C51.4634 72.6302 51.4481 72.5793 51.4194 72.5358C51.3907 72.4924 51.3499 72.4584 51.302 72.4381C50.7069 72.2631 50.0743 72.2631 49.4791 72.4381C46.5292 73.4153 44.108 79.4186 46.4179 81.7641L46.3761 81.7083ZM46.3761 46.4144C44.0662 48.7319 46.5014 54.7911 49.4374 55.7544C50.0324 55.9301 50.6652 55.9301 51.2602 55.7544C51.3042 55.7324 51.3412 55.6985 51.367 55.6566C51.3929 55.6147 51.4066 55.5664 51.4066 55.5171C51.4066 55.4678 51.3929 55.4195 51.367 55.3775C51.3412 55.3356 51.3042 55.3018 51.2602 55.2797C49.66 54.3862 48.2685 50.6307 49.4513 49.4858C50.6341 48.341 54.3354 49.6953 55.226 51.3706C55.2462 51.4186 55.2801 51.4596 55.3234 51.4884C55.3667 51.5172 55.4175 51.5326 55.4695 51.5326C55.5215 51.5326 55.5723 51.5172 55.6156 51.4884C55.6589 51.4596 55.6928 51.4186 55.713 51.3706C55.8873 50.7735 55.8873 50.1388 55.713 49.5417C54.739 46.5819 48.7556 44.1527 46.4179 46.4702L46.3761 46.4144ZM81.553 46.4144C79.2431 44.0968 73.204 46.54 72.2439 49.4858C72.0688 50.0828 72.0688 50.7178 72.2439 51.3148C72.2659 51.3589 72.2996 51.396 72.3414 51.4219C72.3832 51.4478 72.4313 51.4616 72.4805 51.4616C72.5296 51.4616 72.5778 51.4478 72.6195 51.4219C72.6613 51.396 72.6951 51.3589 72.717 51.3148C73.6076 49.6673 77.3646 48.2852 78.5056 49.416C79.6466 50.5469 78.2691 54.3164 76.6271 55.2099C76.5792 55.2302 76.5384 55.2642 76.5097 55.3077C76.481 55.3511 76.4657 55.4021 76.4657 55.4543C76.4657 55.5064 76.481 55.5574 76.5097 55.6008C76.5384 55.6443 76.5792 55.6783 76.6271 55.6986C77.2222 55.8735 77.8548 55.8735 78.45 55.6986C81.3999 54.7213 83.8211 48.718 81.5112 46.3725L81.553 46.4144ZM81.553 81.7083C83.8628 79.3907 81.4277 73.3316 78.4917 72.3682C77.901 72.1953 77.2734 72.1953 76.6828 72.3682C76.6388 72.3903 76.6018 72.4241 76.576 72.466C76.5501 72.508 76.5365 72.5563 76.5365 72.6056C76.5365 72.6549 76.5501 72.7032 76.576 72.7451C76.6018 72.787 76.6388 72.8209 76.6828 72.8429C78.3247 73.7364 79.7023 77.506 78.5752 78.6508C77.4481 79.7956 73.6911 78.4134 72.8005 76.766C72.7803 76.718 72.7464 76.677 72.7031 76.6482C72.6598 76.6194 72.609 76.6041 72.557 76.6041C72.505 76.6041 72.4542 76.6194 72.4109 76.6482C72.3676 76.677 72.3337 76.718 72.3135 76.766C72.1392 77.3631 72.1392 77.9978 72.3135 78.5949C73.2875 81.5547 79.2709 83.984 81.6086 81.6664L81.553 81.7083ZM63.9785 39.0987C60.7085 39.0987 58.176 45.0881 59.5674 47.8803C59.8574 48.4254 60.2968 48.8759 60.8337 49.1787C60.8782 49.2008 60.9281 49.2098 60.9775 49.2048C61.0269 49.1998 61.0739 49.1809 61.1132 49.1503C61.1524 49.1197 61.1822 49.0786 61.1992 49.0318C61.2162 48.9849 61.2198 48.9343 61.2094 48.8855C60.6806 47.0845 62.3504 43.4406 63.9924 43.4406C65.6343 43.4406 67.2763 47.0845 66.7754 48.8715C66.7628 48.9221 66.7654 48.9753 66.7829 49.0244C66.8003 49.0736 66.8317 49.1164 66.8733 49.1477C66.9149 49.179 66.9647 49.1973 67.0166 49.2003C67.0685 49.2033 67.1201 49.191 67.165 49.1647C67.7033 48.8576 68.1427 48.4022 68.4312 47.8524C69.8227 45.0601 67.2902 39.0847 64.0202 39.0847L63.9785 39.0987ZM88.8444 64.0613C88.8444 60.7804 82.8749 58.2395 80.0919 59.6356C79.5486 59.9266 79.0996 60.3674 78.7978 60.9061C78.7758 60.9508 78.7668 61.0008 78.7718 61.0504C78.7768 61.1 78.7956 61.1471 78.8261 61.1865C78.8566 61.2258 78.8976 61.2558 78.9443 61.2728C78.9909 61.2899 79.0415 61.2935 79.09 61.2831C80.8851 60.7525 84.5168 62.4279 84.5168 64.0753C84.5168 65.7227 80.8851 67.3701 79.104 66.8675C79.0535 66.855 79.0005 66.8576 78.9516 66.8751C78.9026 66.8925 78.8599 66.9241 78.8287 66.9658C78.7975 67.0075 78.7793 67.0575 78.7763 67.1096C78.7733 67.1616 78.7856 67.2134 78.8117 67.2584C79.1179 67.7986 79.5718 68.2395 80.1197 68.5289C82.9027 69.925 88.8583 67.3841 88.8583 64.1032L88.8444 64.0613ZM63.9785 89.01C67.2485 89.01 69.781 83.0206 68.3895 80.2284C68.0995 79.6833 67.6601 79.2328 67.1232 78.93C67.0787 78.9079 67.0289 78.8989 66.9794 78.9039C66.93 78.9089 66.883 78.9278 66.8438 78.9584C66.8046 78.989 66.7747 79.0301 66.7577 79.0769C66.7407 79.1237 66.7372 79.1744 66.7475 79.2232C67.2763 81.0242 65.6065 84.6681 63.9645 84.6681C62.3226 84.6681 60.6806 81.0242 61.1816 79.2372C61.1941 79.1866 61.1915 79.1334 61.1741 79.0843C61.1566 79.0351 61.1252 78.9923 61.0836 78.961C61.042 78.9297 60.9922 78.9114 60.9403 78.9084C60.8885 78.9054 60.8369 78.9177 60.792 78.944C60.2536 79.2511 59.8142 79.7065 59.5257 80.2563C58.1342 83.0486 60.6667 89.0239 63.9367 89.0239L63.9785 89.01Z" fill="#67B790"/>
</g>
<g filter="url(#filter1_d_1_295)">
<path fill-rule="evenodd" clip-rule="evenodd" d="M37.2779 91.2076C34.9681 88.89 37.4032 82.8309 40.3392 81.8675C40.9124 81.7045 41.5194 81.7045 42.0925 81.8675C42.1334 81.8782 42.1712 81.8985 42.2027 81.9268C42.2342 81.9551 42.2584 81.9906 42.2734 82.0302C42.2884 82.0699 42.2937 82.1126 42.2889 82.1547C42.284 82.1969 42.2692 82.2372 42.2456 82.2724C41.1602 83.6685 40.4505 86.1816 41.3828 87.117C42.3151 88.0524 44.7502 87.3403 46.2113 86.2514C46.2464 86.2277 46.2866 86.2128 46.3286 86.2079C46.3706 86.2031 46.4131 86.2084 46.4527 86.2234C46.4922 86.2385 46.5276 86.2628 46.5558 86.2944C46.584 86.326 46.6042 86.3639 46.6148 86.4049C46.7781 86.9799 46.7781 87.5891 46.6148 88.1641C45.6408 91.1238 39.6574 93.5531 37.3197 91.2355L37.2779 91.2076ZM27.5375 54.9084C28.3863 51.7532 34.815 50.8317 37.1249 52.898C37.6019 53.3237 37.9411 53.8829 38.0989 54.5035C38.1103 54.5449 38.1116 54.5883 38.1026 54.6303C38.0936 54.6722 38.0746 54.7113 38.0472 54.7442C38.0199 54.7772 37.985 54.803 37.9455 54.8194C37.906 54.8358 37.8632 54.8424 37.8206 54.8386C36.0117 54.6292 33.5487 55.2435 33.2009 56.514C32.853 57.7844 34.6898 59.5435 36.3595 60.2695C36.3985 60.2879 36.4325 60.3155 36.4584 60.35C36.4844 60.3845 36.5015 60.4248 36.5084 60.4675C36.5152 60.5101 36.5116 60.5538 36.4978 60.5948C36.484 60.6357 36.4604 60.6726 36.4291 60.7023C36.0039 61.1256 35.4687 61.4207 34.8846 61.554C31.8511 62.1822 26.7304 58.1753 27.5792 55.0061L27.5375 54.9084ZM53.9758 28.3821C57.1345 27.5305 61.1281 32.6682 60.5019 35.7117C60.3684 36.2976 60.0744 36.8343 59.6531 37.2614C59.6235 37.2928 59.5867 37.3165 59.5459 37.3303C59.5051 37.3442 59.4616 37.3478 59.4191 37.3409C59.3765 37.334 59.3363 37.3168 59.302 37.2908C59.2676 37.2648 59.2401 37.2308 59.2218 37.1916C58.4982 35.5163 56.7449 33.6734 55.4787 34.0224C54.2124 34.3715 53.6141 36.8147 53.8089 38.6436C53.8127 38.6863 53.8061 38.7293 53.7897 38.7689C53.7733 38.8085 53.7476 38.8435 53.7148 38.871C53.682 38.8984 53.643 38.9175 53.6012 38.9265C53.5594 38.9355 53.5161 38.9343 53.4749 38.9228C52.8995 38.7666 52.379 38.4523 51.9721 38.0153C49.9127 35.6978 50.8172 29.2477 53.9758 28.3961V28.3821ZM73.3315 28.3821C76.4763 29.2337 77.3947 35.6838 75.3213 38.0014C74.9144 38.4384 74.3939 38.7527 73.8185 38.9089C73.7773 38.9203 73.734 38.9216 73.6922 38.9125C73.6505 38.9035 73.6115 38.8845 73.5787 38.857C73.5458 38.8296 73.5201 38.7945 73.5037 38.7549C73.4873 38.7153 73.4808 38.6723 73.4846 38.6296C73.6933 36.8147 73.081 34.3435 71.8148 33.9945C70.5485 33.6455 68.8787 35.5721 68.1412 37.2335C68.123 37.2726 68.0954 37.3067 68.061 37.3327C68.0267 37.3587 67.9865 37.3759 67.9439 37.3828C67.9014 37.3897 67.8579 37.386 67.8171 37.3722C67.7763 37.3583 67.7395 37.3347 67.7099 37.3033C67.288 36.8766 66.9939 36.3397 66.8611 35.7536C66.2349 32.724 70.2702 27.5863 73.3872 28.4379L73.3315 28.3821ZM99.7699 54.9084C100.674 58.1335 95.5536 62.1543 92.5341 61.4842C91.9502 61.3502 91.4153 61.0552 90.9895 60.6325C90.9583 60.6028 90.9347 60.5659 90.9209 60.525C90.9071 60.484 90.9035 60.4403 90.9103 60.3977C90.9172 60.355 90.9343 60.3147 90.9602 60.2802C90.9862 60.2457 91.0201 60.2181 91.0591 60.1997C92.7289 59.4737 94.5657 57.7146 94.2178 56.4442C93.8699 55.1737 91.4348 54.5734 89.612 54.7688C89.5694 54.7726 89.5265 54.766 89.4871 54.7496C89.4476 54.7331 89.4127 54.7074 89.3853 54.6744C89.358 54.6415 89.339 54.6024 89.33 54.5605C89.321 54.5185 89.3223 54.4751 89.3337 54.4337C89.4893 53.8564 89.8026 53.3342 90.2381 52.9259C92.548 50.8597 98.9767 51.7671 99.8255 54.9363L99.7699 54.9084ZM99.7699 74.3285C98.9211 77.4837 92.4924 78.4052 90.1825 76.3249C89.7469 75.9166 89.4337 75.3944 89.278 74.8171C89.2666 74.7758 89.2653 74.7323 89.2743 74.6904C89.2833 74.6485 89.3023 74.6094 89.3297 74.5764C89.357 74.5435 89.3919 74.5177 89.4314 74.5013C89.4709 74.4848 89.5137 74.4782 89.5563 74.4821C91.3652 74.6915 93.8282 74.0772 94.1761 72.8067C94.5239 71.5362 92.7289 69.8609 91.0591 69.1209C91.0201 69.1026 90.9862 69.075 90.9602 69.0405C90.9343 69.006 90.9172 68.9657 90.9103 68.923C90.9035 68.8803 90.9071 68.8366 90.9209 68.7957C90.9347 68.7548 90.9583 68.7179 90.9895 68.6881C91.4148 68.2648 91.95 67.9698 92.5341 67.8365C95.5676 67.2083 100.688 71.2151 99.8394 74.3843L99.7699 74.3285ZM73.3315 100.855C70.2702 101.762 66.2349 96.6246 66.8611 93.595C66.9946 93.0091 67.2886 92.4724 67.7099 92.0453C67.7395 92.0139 67.7763 91.9902 67.8171 91.9764C67.8579 91.9625 67.9014 91.9589 67.9439 91.9658C67.9865 91.9727 68.0267 91.9899 68.061 92.0159C68.0954 92.0419 68.123 92.0759 68.1412 92.1151C68.8648 93.7904 70.6181 95.6333 71.8844 95.2843C73.1506 94.9352 73.7629 92.492 73.5541 90.6631C73.5503 90.6204 73.5569 90.5774 73.5733 90.5378C73.5897 90.4982 73.6154 90.4632 73.6482 90.4357C73.6811 90.4083 73.72 90.3892 73.7618 90.3802C73.8036 90.3712 73.8469 90.3724 73.8881 90.3839C74.4635 90.5401 74.984 90.8544 75.3909 91.2914C77.4503 93.6089 76.5459 100.059 73.3872 100.911L73.3315 100.855ZM53.9758 100.855C50.8311 100.003 49.9127 93.5531 51.9721 91.2355C52.4109 90.7979 52.9667 90.4972 53.5723 90.3699C53.6135 90.3585 53.6568 90.3572 53.6986 90.3662C53.7404 90.3753 53.7794 90.3943 53.8122 90.4218C53.845 90.4492 53.8707 90.4842 53.8871 90.5238C53.9035 90.5634 53.9101 90.6064 53.9063 90.6491C53.6975 92.4641 54.3098 94.9352 55.5761 95.2843C56.8423 95.6333 58.5956 93.7904 59.3192 92.1151C59.3375 92.0759 59.365 92.0419 59.3994 92.0159C59.4338 91.9899 59.474 91.9727 59.5165 91.9658C59.559 91.9589 59.6025 91.9625 59.6433 91.9764C59.6841 91.9902 59.7209 92.0139 59.7505 92.0453C60.1471 92.4803 60.4167 93.0164 60.5298 93.595C61.1559 96.6385 57.1624 101.776 54.0037 100.925L53.9758 100.855ZM27.5375 74.3285C26.7583 71.257 31.865 67.2083 34.9124 67.8365C35.4963 67.9705 36.0312 68.2654 36.457 68.6881C36.4882 68.7179 36.5118 68.7548 36.5256 68.7957C36.5394 68.8366 36.543 68.8803 36.5362 68.923C36.5293 68.9657 36.5122 69.006 36.4862 69.0405C36.4603 69.075 36.4264 69.1026 36.3874 69.1209C34.7176 69.8469 32.8808 71.606 33.2287 72.8765C33.5766 74.147 36.0117 74.7613 37.8345 74.5519C37.8771 74.548 37.92 74.5546 37.9594 74.5711C37.9989 74.5875 38.0338 74.6133 38.0612 74.6463C38.0885 74.6792 38.1075 74.7183 38.1165 74.7602C38.1255 74.8021 38.1242 74.8456 38.1128 74.8869C37.9572 75.4642 37.6439 75.9865 37.2084 76.3947C34.8985 78.461 28.4698 77.5535 27.621 74.3843L27.5375 74.3285ZM37.2779 38.0293C39.5878 35.7117 45.6269 38.1549 46.587 41.1008C46.7495 41.6758 46.7495 42.2848 46.587 42.8599C46.5764 42.9009 46.5562 42.9389 46.5279 42.9704C46.4997 43.002 46.4644 43.0264 46.4248 43.0414C46.3853 43.0564 46.3428 43.0618 46.3008 43.0569C46.2588 43.052 46.2186 43.0371 46.1835 43.0135C44.792 41.9245 42.2873 41.2125 41.355 42.1479C40.4227 43.0833 41.1324 45.5265 42.2177 46.9924C42.2413 47.0276 42.2562 47.068 42.261 47.1101C42.2659 47.1522 42.2606 47.1949 42.2456 47.2346C42.2306 47.2742 42.2063 47.3097 42.1749 47.338C42.1434 47.3663 42.1056 47.3866 42.0647 47.3973C41.4916 47.561 40.8844 47.561 40.3114 47.3973C37.3614 46.42 34.9402 40.4167 37.2501 38.0712L37.2779 38.0293ZM90.1546 38.0293C92.4645 40.3469 90.0294 46.406 87.0934 47.3694C86.5202 47.5324 85.9132 47.5324 85.3401 47.3694C85.2992 47.3587 85.2614 47.3384 85.2299 47.3101C85.1984 47.2818 85.1742 47.2463 85.1592 47.2066C85.1442 47.167 85.1389 47.1243 85.1437 47.0822C85.1486 47.04 85.1634 46.9997 85.187 46.9645C86.2724 45.5684 86.982 43.0553 86.0497 42.1199C85.1174 41.1845 82.6823 41.8966 81.2213 42.9855C81.1862 43.0092 81.146 43.0241 81.104 43.029C81.062 43.0338 81.0194 43.0285 80.9799 43.0135C80.9404 42.9984 80.905 42.9741 80.8768 42.9425C80.8486 42.9109 80.8283 42.873 80.8177 42.832C80.6545 42.257 80.6545 41.6478 80.8177 41.0728C81.7918 38.1131 87.7752 35.6838 90.1129 38.0014L90.1546 38.0293ZM90.1546 91.0819C87.8448 93.3995 81.8057 90.9563 80.8456 88.0105C80.6831 87.4354 80.6831 86.8264 80.8456 86.2514C80.8562 86.2103 80.8764 86.1724 80.9046 86.1408C80.9329 86.1092 80.9682 86.0849 81.0077 86.0699C81.0473 86.0548 81.0898 86.0495 81.1318 86.0544C81.1738 86.0592 81.214 86.0741 81.2491 86.0978C82.6406 87.1868 85.1453 87.8988 86.0776 86.9634C87.0099 86.028 86.3002 83.5848 85.2149 82.1188C85.1913 82.0836 85.1764 82.0433 85.1716 82.0012C85.1667 81.959 85.172 81.9163 85.187 81.8767C85.202 81.837 85.2262 81.8015 85.2577 81.7732C85.2892 81.7449 85.327 81.7246 85.3679 81.714C85.9409 81.5502 86.5482 81.5502 87.1212 81.714C90.0712 82.6913 92.4924 88.6946 90.1825 91.0401L90.1546 91.0819Z" fill="white"/>
</g>
<g filter="url(#filter2_d_1_295)">
<path fill-rule="evenodd" clip-rule="evenodd" d="M113.211 64.2691C113.211 60.9882 107.242 58.4473 104.459 59.8434C103.846 60.1961 103.359 60.7334 103.067 61.3791C103.052 61.4128 103.043 61.4494 103.043 61.4865C103.042 61.5237 103.049 61.5606 103.063 61.5948C103.078 61.629 103.099 61.6598 103.126 61.6852C103.153 61.7106 103.185 61.7299 103.22 61.7421C104.681 62.2447 106.003 63.222 106.003 64.2551C106.003 65.2882 104.612 66.2655 103.22 66.7681C103.185 66.7803 103.153 66.7997 103.126 66.8251C103.099 66.8504 103.078 66.8812 103.063 66.9155C103.049 66.9497 103.042 66.9866 103.043 67.0237C103.043 67.0609 103.052 67.0975 103.067 67.1311C103.36 67.7763 103.847 68.3134 104.459 68.6669C107.242 70.063 113.197 67.522 113.197 64.2412L113.211 64.2691ZM21.5817 88.8966C23.2098 91.6889 29.6663 90.9489 31.3222 88.3382C31.7016 87.7198 31.8724 86.9953 31.8092 86.2719C31.8059 86.2357 31.7951 86.2005 31.7776 86.1686C31.7601 86.1367 31.7363 86.1087 31.7076 86.0864C31.6789 86.0642 31.6459 86.0481 31.6107 86.0392C31.5755 86.0302 31.5389 86.0287 31.5031 86.0346C29.9863 86.3417 28.3026 86.1742 27.7878 85.2807C27.2729 84.3872 27.9826 82.8375 28.9984 81.6787C29.0254 81.6538 29.0469 81.6236 29.0617 81.59C29.0764 81.5563 29.084 81.52 29.084 81.4832C29.084 81.4465 29.0764 81.4101 29.0617 81.3765C29.0469 81.3428 29.0254 81.3126 28.9984 81.2878C28.4037 80.844 27.6801 80.6085 26.939 80.6176C23.8499 80.7991 19.9815 85.9927 21.5817 88.8268V88.8966ZM21.5817 39.6276C19.9537 42.4198 23.8499 47.6692 26.9529 47.8507C27.6549 47.857 28.3411 47.6422 28.9149 47.2364C28.9419 47.2116 28.9634 47.1814 28.9782 47.1477C28.9929 47.1141 29.0005 47.0777 29.0005 47.041C29.0005 47.0042 28.9929 46.9678 28.9782 46.9342C28.9634 46.9006 28.9419 46.8703 28.9149 46.8455C27.8991 45.6728 27.1894 44.137 27.7043 43.2435C28.2191 42.35 29.9029 42.1825 31.4196 42.4896C31.4554 42.4955 31.492 42.494 31.5272 42.485C31.5624 42.4761 31.5954 42.46 31.6241 42.4378C31.6528 42.4155 31.6767 42.3875 31.6941 42.3556C31.7116 42.3237 31.7224 42.2885 31.7257 42.2523C31.8337 41.5227 31.7018 40.7777 31.35 40.1302C29.6524 37.5334 23.2098 36.7376 21.6096 39.5717L21.5817 39.6276ZM64.1057 15C60.8357 15 58.3031 20.9894 59.6946 23.7816C60.0462 24.3966 60.5817 24.885 61.2253 25.1777C61.2588 25.1934 61.2953 25.2019 61.3323 25.2026C61.3694 25.2033 61.4061 25.1962 61.4402 25.1817C61.4743 25.1672 61.505 25.1457 61.5303 25.1186C61.5556 25.0914 61.575 25.0593 61.5871 25.0241C62.088 23.5582 63.062 22.2319 64.0917 22.2319C65.1214 22.2319 66.0955 23.628 66.5964 25.0241C66.6085 25.0593 66.6279 25.0914 66.6532 25.1186C66.6785 25.1457 66.7092 25.1672 66.7433 25.1817C66.7774 25.1962 66.8141 25.2033 66.8512 25.2026C66.8882 25.2019 66.9247 25.1934 66.9582 25.1777C67.6013 24.8842 68.1365 24.396 68.4889 23.7816C69.8803 20.9894 67.3478 15.014 64.0778 15.014L64.1057 15ZM106.63 39.6276C105.002 36.8353 98.545 37.5753 96.8891 40.186C96.5097 40.8044 96.3389 41.5289 96.4021 42.2523C96.4055 42.2885 96.4162 42.3237 96.4337 42.3556C96.4512 42.3875 96.475 42.4155 96.5037 42.4378C96.5324 42.46 96.5654 42.4761 96.6006 42.485C96.6358 42.494 96.6724 42.4955 96.7083 42.4896C98.225 42.1825 99.9087 42.35 100.424 43.2435C100.938 44.137 100.229 45.6867 99.2129 46.8455C99.1859 46.8703 99.1644 46.9006 99.1496 46.9342C99.1349 46.9678 99.1273 47.0042 99.1273 47.041C99.1273 47.0777 99.1349 47.1141 99.1496 47.1477C99.1644 47.1814 99.1859 47.2116 99.2129 47.2364C99.803 47.6517 100.51 47.8669 101.231 47.8507C104.32 47.6692 108.188 42.4756 106.588 39.6415L106.63 39.6276ZM106.63 88.8966C108.23 86.0625 104.348 80.855 101.272 80.6176C100.551 80.5994 99.8439 80.8148 99.2547 81.2319C99.2277 81.2568 99.2061 81.287 99.1914 81.3206C99.1767 81.3543 99.169 81.3906 99.169 81.4274C99.169 81.4642 99.1767 81.5005 99.1914 81.5342C99.2061 81.5678 99.2277 81.598 99.2547 81.6229C100.27 82.7956 100.98 84.3313 100.465 85.2248C99.9504 86.1184 98.2667 86.2859 96.75 85.9787C96.7142 85.9728 96.6776 85.9744 96.6424 85.9833C96.6072 85.9922 96.5742 86.0083 96.5455 86.0306C96.5168 86.0529 96.4929 86.0808 96.4754 86.1127C96.458 86.1446 96.4472 86.1798 96.4439 86.2161C96.3817 86.9394 96.5524 87.6636 96.9309 88.2823C98.6285 90.8791 105.071 91.6749 106.671 88.8408L106.63 88.8966ZM64.1057 113.538C67.3757 113.538 69.9082 107.549 68.5167 104.757C68.1651 104.142 67.6296 103.653 66.986 103.36C66.9525 103.345 66.916 103.336 66.879 103.336C66.842 103.335 66.8052 103.342 66.7711 103.356C66.737 103.371 66.7063 103.392 66.681 103.42C66.6557 103.447 66.6364 103.479 66.6243 103.514C66.1233 104.98 65.1493 106.306 64.1196 106.306C63.0899 106.306 62.1158 104.91 61.6149 103.514C61.6028 103.479 61.5835 103.447 61.5582 103.42C61.5329 103.392 61.5022 103.371 61.4681 103.356C61.434 103.342 61.3972 103.335 61.3602 103.336C61.3231 103.336 61.2867 103.345 61.2531 103.36C60.6101 103.654 60.0748 104.142 59.7225 104.757C58.331 107.549 60.8635 113.524 64.1335 113.524L64.1057 113.538ZM88.6515 21.6036C85.8686 19.9702 80.6366 23.8793 80.4557 26.9927C80.4494 27.697 80.6635 28.3855 81.0679 28.9612C81.0927 28.9883 81.1228 29.0099 81.1563 29.0247C81.1899 29.0395 81.2261 29.0471 81.2627 29.0471C81.2994 29.0471 81.3356 29.0395 81.3691 29.0247C81.4027 29.0099 81.4328 28.9883 81.4575 28.9612C82.6264 27.942 84.157 27.23 85.0476 27.7466C85.9381 28.2631 86.1051 29.9524 85.799 31.4742C85.7931 31.5101 85.7946 31.5469 85.8035 31.5822C85.8124 31.6175 85.8285 31.6506 85.8507 31.6794C85.8729 31.7082 85.9007 31.7322 85.9325 31.7497C85.9643 31.7672 85.9994 31.778 86.0355 31.7814C86.7564 31.8438 87.4783 31.6725 88.0949 31.2927C90.6831 29.5895 91.4763 23.1254 88.6515 21.5199V21.6036ZM39.5459 21.6036C36.7629 23.2371 37.5004 29.7151 40.1025 31.3765C40.7148 31.7543 41.4316 31.9255 42.148 31.8651C42.1841 31.8618 42.2192 31.851 42.251 31.8335C42.2828 31.8159 42.3106 31.792 42.3328 31.7632C42.355 31.7344 42.3711 31.7013 42.38 31.666C42.3888 31.6307 42.3904 31.5939 42.3845 31.558C42.0784 30.0362 42.2454 28.3469 43.1359 27.8303C44.0265 27.3138 45.571 28.0258 46.726 29.045C46.7507 29.0721 46.7808 29.0937 46.8144 29.1085C46.8479 29.1233 46.8841 29.1309 46.9208 29.1309C46.9574 29.1309 46.9936 29.1233 47.0272 29.1085C47.0607 29.0937 47.0908 29.0721 47.1156 29.045C47.5295 28.4529 47.744 27.7436 47.7278 27.0206C47.5469 23.9212 42.3706 20.04 39.5459 21.6455V21.6036ZM15 64.2691C15 67.55 20.9695 70.0909 23.7525 68.6948C24.3654 68.342 24.8522 67.8048 25.144 67.159C25.1596 67.1254 25.1681 67.0888 25.1688 67.0516C25.1695 67.0145 25.1624 66.9776 25.1479 66.9434C25.1335 66.9092 25.1121 66.8784 25.085 66.853C25.058 66.8276 25.0259 66.8082 24.9909 66.7961C23.5298 66.2934 22.2079 65.3162 22.2079 64.283C22.2079 63.2499 23.5994 62.2726 24.9909 61.77C25.0259 61.7579 25.058 61.7385 25.085 61.7131C25.1121 61.6877 25.1335 61.6569 25.1479 61.6227C25.1624 61.5885 25.1695 61.5516 25.1688 61.5144C25.1681 61.4773 25.1596 61.4407 25.144 61.407C24.8514 60.7618 24.3648 60.2248 23.7525 59.8713C20.9695 58.4752 15.0139 61.0161 15.0139 64.297L15 64.2691ZM39.5459 106.935C42.3289 108.568 47.5609 104.659 47.7417 101.545C47.7599 100.822 47.5452 100.112 47.1295 99.5211C47.1047 99.494 47.0746 99.4724 47.0411 99.4576C47.0075 99.4428 46.9713 99.4352 46.9347 99.4352C46.898 99.4352 46.8618 99.4428 46.8283 99.4576C46.7947 99.4724 46.7646 99.494 46.7399 99.5211C45.571 100.54 44.0404 101.252 43.1498 100.736C42.2593 100.219 42.0923 98.5299 42.3984 97.0081C42.4043 96.9722 42.4028 96.9354 42.3939 96.9001C42.385 96.8648 42.3689 96.8317 42.3467 96.8029C42.3246 96.7741 42.2967 96.7502 42.2649 96.7326C42.2331 96.7151 42.198 96.7043 42.1619 96.7009C41.441 96.6386 40.7191 96.8098 40.1025 97.1896C37.5143 98.8929 36.7211 105.357 39.5459 106.962V106.935ZM88.6515 106.935C91.4345 105.301 90.697 98.823 88.0949 97.1617C87.4786 96.781 86.7565 96.6096 86.0355 96.673C85.9994 96.6764 85.9643 96.6872 85.9325 96.7047C85.9007 96.7222 85.8729 96.7462 85.8507 96.775C85.8285 96.8038 85.8124 96.8369 85.8035 96.8722C85.7946 96.9075 85.7931 96.9442 85.799 96.9802C86.1051 98.5019 85.9381 100.191 85.0476 100.708C84.157 101.224 82.6125 100.512 81.4575 99.4932C81.4328 99.4661 81.4027 99.4445 81.3691 99.4297C81.3356 99.4149 81.2994 99.4073 81.2627 99.4073C81.2261 99.4073 81.1899 99.4149 81.1563 99.4297C81.1228 99.4445 81.0927 99.4661 81.0679 99.4932C80.6256 100.09 80.3909 100.816 80.4 101.559C80.5809 104.659 85.7572 108.54 88.582 106.935H88.6515Z" fill="#67B790"/>
</g>
<defs>
<filter id="filter0_d_1_295" x="37.0847" y="39.0847" width="53.7736" height="53.9392" filterUnits="userSpaceOnUse" color-interpolation-filters="sRGB">
<feFlood flood-opacity="0" result="BackgroundImageFix"/>
<feColorMatrix in="SourceAlpha" type="matrix" values="0 0 0 0 0 0 0 0 0 0 0 0 0 0 0 0 0 0 127 0" result="hardAlpha"/>
<feOffset dy="2"/>
<feGaussianBlur stdDeviation="1"/>
<feComposite in2="hardAlpha" operator="out"/>
<feColorMatrix type="matrix" values="0 0 0 0 0.403922 0 0 0 0 0.717647 0 0 0 0 0.564706 0 0 0 0.36 0"/>
<feBlend mode="normal" in2="BackgroundImageFix" result="effect1_dropShadow_1_295"/>
<feBlend mode="normal" in="SourceGraphic" in2="effect1_dropShadow_1_295" result="shape"/>
</filter>
<filter id="filter1_d_1_295" x="25.4576" y="28.2881" width="76.4755" height="76.7304" filterUnits="userSpaceOnUse" color-interpolation-filters="sRGB">
<feFlood flood-opacity="0" result="BackgroundImageFix"/>
<feColorMatrix in="SourceAlpha" type="matrix" values="0 0 0 0 0 0 0 0 0 0 0 0 0 0 0 0 0 0 127 0" result="hardAlpha"/>
<feOffset dy="2"/>
<feGaussianBlur stdDeviation="1"/>
<feComposite in2="hardAlpha" operator="out"/>
<feColorMatrix type="matrix" values="0 0 0 0 1 0 0 0 0 1 0 0 0 0 1 0 0 0 0.18 0"/>
<feBlend mode="normal" in2="BackgroundImageFix" result="effect1_dropShadow_1_295"/>
<feBlend mode="normal" in="SourceGraphic" in2="effect1_dropShadow_1_295" result="shape"/>
</filter>
<filter id="filter2_d_1_295" x="13" y="15" width="102.211" height="102.538" filterUnits="userSpaceOnUse" color-interpolation-filters="sRGB">
<feFlood flood-opacity="0" result="BackgroundImageFix"/>
<feColorMatrix in="SourceAlpha" type="matrix" values="0 0 0 0 0 0 0 0 0 0 0 0 0 0 0 0 0 0 127 0" result="hardAlpha"/>
<feOffset dy="2"/>
<feGaussianBlur stdDeviation="1"/>
<feComposite in2="hardAlpha" operator="out"/>
<feColorMatrix type="matrix" values="0 0 0 0 0.403922 0 0 0 0 0.717647 0 0 0 0 0.564706 0 0 0 0.36 0"/>
<feBlend mode="normal" in2="BackgroundImageFix" result="effect1_dropShadow_1_295"/>
<feBlend mode="normal" in="SourceGraphic" in2="effect1_dropShadow_1_295" result="shape"/>
</filter>
<radialGradient id="paint0_radial_1_295" cx="0" cy="0" r="1" gradientUnits="userSpaceOnUse" gradientTransform="translate(64 64) scale(56)">
<stop stop-color="white" stop-opacity="0.12"/>
<stop offset="0.9997"/>
<stop offset="0.9998" stop-color="#A184F5"/>
<stop offset="0.9999"/>
</radialGradient>
</defs>
</svg>
